<svg width="110" height="110" viewBox="0 0 110 110" fill="none" xmlns="http://www.w3.org/2000/svg">
<g clip-path="url(#clip0_941_60696)">
<path fill-rule="evenodd" clip-rule="evenodd" d="M71.5786 77.5688H38.4214V89.8318C38.4214 91.457 39.0683 93.0177 40.2193 94.167C41.3704 95.3163 42.9312 95.9622 44.5611 95.9622H65.4412C67.0687 95.9622 68.6319 95.3163 69.7829 94.167C70.934 93.0177 71.5809 91.4593 71.5809 89.8318V77.5688H71.5786Z" fill="#C7CEFF"/>
<path fill-rule="evenodd" clip-rule="evenodd" d="M45.7905 95.9645H64.2119C64.2119 101.04 60.0843 105.161 55.0012 105.161C49.9182 105.161 45.7905 101.04 45.7905 95.9645Z" fill="#F58622"/>
<path fill-rule="evenodd" clip-rule="evenodd" d="M58.6636 102.348C57.5839 102.968 56.3316 103.322 54.9987 103.322C50.9309 103.322 47.6297 100.026 47.6297 95.9645C47.6297 94.9485 46.8032 94.1256 45.788 94.1256C44.7727 94.1256 43.9463 94.9508 43.9463 95.9645C43.9463 102.056 48.8981 107 54.9987 107C57.0015 107 58.88 106.467 60.5007 105.536C61.3824 105.03 61.6863 103.904 61.1798 103.023C60.6734 102.143 59.5453 101.84 58.6636 102.345V102.348Z" fill="#37008F"/>
<path fill-rule="evenodd" clip-rule="evenodd" d="M69.7368 86.7677V88.6066C69.7368 90.0708 69.1543 91.4729 68.1184 92.5073C67.0824 93.5417 65.6759 94.1232 64.2117 94.1232H45.7903C44.3239 94.1232 42.9196 93.5417 41.8813 92.5073C40.8454 91.4729 40.263 90.0685 40.263 88.6066V77.5711C40.263 76.5551 39.4365 75.7322 38.4213 75.7322C37.406 75.7322 36.5796 76.5574 36.5796 77.5711V88.6066C36.5796 91.0454 37.5488 93.3854 39.2777 95.1093C41.0042 96.8333 43.3478 97.8033 45.7903 97.8033H64.2117C66.6542 97.8033 68.9978 96.8333 70.7244 95.1093C72.4509 93.3854 73.4224 91.0454 73.4224 88.6066V86.7677H69.7391H69.7368Z" fill="#37008F"/>
<path fill-rule="evenodd" clip-rule="evenodd" d="M38.4215 77.5688C38.4215 77.5688 21.8418 57.217 21.8418 38.9455C21.8418 20.674 36.6996 5.83655 55.0013 5.83655C73.303 5.83655 88.1584 20.6717 88.1584 38.9432C88.1584 57.2147 71.5787 77.5688 71.5787 77.5688H38.4215Z" fill="white"/>
<path fill-rule="evenodd" clip-rule="evenodd" d="M70.6854 75.7322C73.4893 72.1234 86.3143 54.7461 86.3143 38.9455C86.3143 21.6877 72.283 7.67775 54.9988 7.67775C46.1404 7.67775 38.1383 11.3578 32.4383 17.2698C31.7338 18.0007 30.5666 18.0237 29.8346 17.3181C29.1025 16.6147 29.0795 15.4493 29.7839 14.7183C36.1538 8.11219 45.0998 4 55.0011 4C74.3181 4 90.0023 19.658 90.0023 38.9478C90.0023 58.2376 73.0105 78.7342 73.0105 78.7342C72.6606 79.164 72.1357 79.4123 71.5809 79.4123H38.4214C37.8666 79.4123 37.3417 79.164 36.9918 78.7342C36.9918 78.7342 20 57.7549 20 38.9478C20 32.4635 21.7726 26.3883 24.8597 21.1797C25.3777 20.3062 26.508 20.0166 27.3828 20.5338C28.2576 21.051 28.5477 22.1796 28.0297 23.053C25.2672 27.7123 23.6834 33.1462 23.6834 38.9455C23.6834 54.7438 36.5084 72.1211 39.3123 75.7322H70.6854Z" fill="#37008F"/>
<path d="M47.5 52L50.6847 48.8153C51.115 48.385 51.8267 48.4356 52.1918 48.9224L53.8082 51.0776C54.1733 51.5644 54.885 51.615 55.3153 51.1847L57.8958 48.6042C58.2437 48.2563 58.7931 48.2132 59.1911 48.5026L64 52" stroke="#F58622" stroke-width="4"/>
<path d="M62.5523 46.5455C62.8033 45.4699 63.8788 44.8013 64.9545 45.0523C66.0301 45.3033 66.6987 46.3788 66.4477 47.4545L62.5523 46.5455ZM55.5523 76.5455L62.5523 46.5455L66.4477 47.4545L59.4477 77.4545L55.5523 76.5455Z" fill="#37008F"/>
</g>
<path d="M47.4477 46.5455C47.1967 45.4699 46.1212 44.8013 45.0455 45.0523C43.9699 45.3033 43.3013 46.3788 43.5523 47.4545L47.4477 46.5455ZM54.4477 76.5455L47.4477 46.5455L43.5523 47.4545L50.5523 77.4545L54.4477 76.5455Z" fill="#37008F"/>
<defs>
<clipPath id="clip0_941_60696">
<rect width="70" height="103" fill="white" transform="translate(20 4)"/>
</clipPath>
</defs>
</svg>
