<svg width="64" height="64" viewBox="0 0 64 64" fill="none" xmlns="http://www.w3.org/2000/svg">
<g clip-path="url(#clip0_941_60709)">
<path fill-rule="evenodd" clip-rule="evenodd" d="M13.0537 32.7772C13.0537 24.6202 21.4752 17.9976 21.4752 17.9976H42.5275C42.5275 17.9976 50.949 24.6202 50.949 32.7772H13.0537Z" fill="#C7CEFF"/>
<path fill-rule="evenodd" clip-rule="evenodd" d="M14.1566 31.7204H23.3164C23.8977 31.7204 24.3688 32.1928 24.3688 32.7758C24.3688 33.3588 23.8977 33.8312 23.3164 33.8312H13.0524C12.471 33.8312 12 33.3588 12 32.7758C12 29.2973 13.4157 26.0738 15.1389 23.4658C17.664 19.645 20.8237 17.1646 20.8237 17.1646C21.0093 17.0188 21.2377 16.9395 21.4738 16.9395H42.5262C42.761 16.9395 42.9907 17.0188 43.1763 17.1646C43.1763 17.1646 46.336 19.645 48.8611 23.4658C50.5843 26.0738 52 29.2973 52 32.7758C52 33.3588 51.529 33.8312 50.9476 33.8312H47.7893C47.2079 33.8312 46.7369 33.3575 46.7369 32.7758C46.7369 32.1941 47.2079 31.7204 47.7893 31.7204H49.8434C49.5929 29.0799 48.4394 26.6516 47.1054 24.6332C45.207 21.761 42.9232 19.7088 42.1486 19.0516H21.8514C21.0768 19.7088 18.793 21.761 16.8946 24.6332C15.5606 26.6516 14.4071 29.0799 14.1566 31.7204Z" fill="#37008F"/>
<path fill-rule="evenodd" clip-rule="evenodd" d="M19.3691 48.3311C19.3691 43.6058 22.255 39.4011 24.6478 36.7268H39.3536C41.7464 39.4011 44.6322 43.6058 44.6322 48.3311H19.3691Z" fill="#C7CEFF"/>
<path fill-rule="evenodd" clip-rule="evenodd" d="M43.5281 47.2758C43.1414 43.265 40.6409 39.7474 38.5699 37.4309C38.1819 36.9976 38.2183 36.3287 38.6504 35.9396C39.0825 35.5505 39.7494 35.5869 40.1374 36.0203C42.6717 38.8533 45.6847 43.3261 45.6847 48.3299C45.6847 48.9129 45.2137 49.3853 44.6323 49.3853H19.3693C18.7879 49.3853 18.3169 48.9129 18.3169 48.3299C18.3169 46.089 18.9138 43.9547 19.8091 42.0248C20.0544 41.4964 20.6811 41.2674 21.208 41.5133C21.7348 41.7593 21.9632 42.3879 21.7179 42.9162C21.0899 44.2696 20.6253 45.7363 20.4748 47.2758H43.5294H43.5281Z" fill="#37008F"/>
<path fill-rule="evenodd" clip-rule="evenodd" d="M15.6202 59.601C15.3218 58.7304 15.1596 57.7804 15.1596 56.7848C15.1596 52.7493 17.8443 49.3944 21.2648 49.3944H42.7389C44.8358 49.3944 46.668 50.6814 47.7606 52.5892C48.05 53.0941 48.6936 53.2685 49.1971 52.9783C49.7005 52.6881 49.8744 52.0426 49.585 51.5364C48.1045 48.9519 45.578 47.2822 42.7376 47.2822H21.2635C16.7829 47.2822 13.0522 51.4961 13.0522 56.7835C13.0522 58.0211 13.2573 59.2041 13.6284 60.2855C13.8165 60.836 14.416 61.1301 14.9662 60.9414C15.5151 60.7527 15.8084 60.1515 15.6202 59.5997V59.601Z" fill="#37008F"/>
<path fill-rule="evenodd" clip-rule="evenodd" d="M48.8429 56.7849C48.8429 57.7804 48.6794 58.7305 48.3823 59.6011C48.1941 60.1515 48.4861 60.7528 49.0363 60.9428C49.5865 61.1328 50.1847 60.8387 50.3741 60.2869C50.7452 59.2054 50.949 58.0225 50.949 56.7849C50.949 56.2019 50.4779 55.7295 49.8966 55.7295C49.3153 55.7295 48.8442 56.2019 48.8442 56.7849H48.8429Z" fill="#37008F"/>
<path fill-rule="evenodd" clip-rule="evenodd" d="M25.1654 59.5475C24.8215 58.6939 24.6321 57.7608 24.6321 56.7834C24.6321 56.2004 24.161 55.728 23.5797 55.728C22.9984 55.728 22.5273 56.2004 22.5273 56.7834C22.5273 58.0406 22.7713 59.2404 23.2138 60.3388C23.4318 60.8789 24.0455 61.1404 24.584 60.9218C25.1226 60.7032 25.3834 60.0876 25.1654 59.5475Z" fill="#37008F"/>
<path fill-rule="evenodd" clip-rule="evenodd" d="M25.2122 53.91C26.332 51.2578 28.9519 49.3943 32.0012 49.3943C36.0679 49.3943 39.3703 52.705 39.3703 56.7847C39.3703 57.7621 39.1809 58.6939 38.837 59.5489C38.619 60.0889 38.8798 60.7045 39.4184 60.9231C39.9569 61.1417 40.5706 60.8802 40.7886 60.3401C41.2311 59.2417 41.4751 58.0419 41.4751 56.7847C41.4751 51.5415 37.2306 47.2834 32.0012 47.2834C28.0799 47.2834 24.7113 49.678 23.2735 53.0876C23.0465 53.6237 23.2982 54.2445 23.8328 54.4709C24.3674 54.6987 24.9864 54.4475 25.2122 53.91Z" fill="#37008F"/>
<path fill-rule="evenodd" clip-rule="evenodd" d="M43.5798 29.3364C43.5798 34.292 41.3855 38.8416 38.9084 42.3995C37.3422 44.6769 34.7599 46.0369 32.0012 46.0369C29.2425 46.0369 26.6603 44.6782 25.0928 42.4008C22.6156 38.8416 20.4214 34.292 20.4214 29.3377C20.4214 29.3377 20.4214 30.3931 20.4214 24.127C20.4214 16.5647 25.5314 9.94727 28.9622 6.35549C29.7564 5.52521 30.8541 5.05542 32.0012 5.05542C33.1483 5.05542 34.2461 5.52521 35.0402 6.35549C38.4711 9.94597 43.5811 16.5634 43.5811 24.127V29.3377L43.5798 29.3364Z" fill="white"/>
<path fill-rule="evenodd" clip-rule="evenodd" d="M42.5277 29.3363C42.5277 34.0654 40.41 38.399 38.0457 41.7943C36.6716 43.7906 34.4138 44.98 32.0015 44.98C29.5893 44.98 27.3301 43.7906 25.9598 41.7995C23.593 38.399 21.4753 34.0641 21.4753 29.335C21.4753 28.7519 21.0043 28.2795 20.423 28.2795C19.8416 28.2795 19.3706 28.7519 19.3706 29.335C19.3706 34.5157 21.6414 39.2813 24.2314 43.0032C25.991 45.5617 28.8976 47.0908 32.0028 47.0908C35.108 47.0908 38.0133 45.5604 39.7768 42.998C42.3642 39.2826 44.635 34.517 44.635 29.335C44.635 28.7519 44.164 28.2795 43.5826 28.2795C43.0013 28.2795 42.5303 28.7519 42.5303 29.335L42.5277 29.3363Z" fill="#37008F"/>
<path fill-rule="evenodd" clip-rule="evenodd" d="M21.4752 24.1258C21.4752 16.8641 26.4294 10.533 29.7227 7.08563C30.3183 6.46357 31.141 6.1109 32.0013 6.1109C32.8616 6.1109 33.6843 6.46227 34.2799 7.08563C37.5733 10.533 42.5275 16.8641 42.5275 24.1258C42.5275 24.7088 42.9985 25.1812 43.5799 25.1812C44.1612 25.1812 44.6322 24.7088 44.6322 24.1258C44.6322 16.2616 39.3665 9.35782 35.7994 5.62419C34.8068 4.5857 33.4352 3.99878 32.0013 3.99878C30.5675 3.99878 29.1959 4.5857 28.2032 5.62289C24.6361 9.35652 19.3691 16.2603 19.3691 24.1245C19.3691 24.7075 19.8402 25.1799 20.4215 25.1799C21.0028 25.1799 21.4739 24.7075 21.4739 24.1245L21.4752 24.1258Z" fill="#37008F"/>
<path fill-rule="evenodd" clip-rule="evenodd" d="M25.6846 51.5065C25.6846 46.6251 27.849 42.2811 29.6436 39.5183H34.3578C36.1524 42.2811 38.3168 46.6251 38.3168 51.5065H25.6846Z" fill="#C7CEFF"/>
<path fill-rule="evenodd" clip-rule="evenodd" d="M37.228 50.4512C36.9477 46.2347 35.0532 42.5258 33.4753 40.0949C33.1587 39.6069 33.2963 38.9523 33.7829 38.6334C34.2695 38.3159 34.9222 38.4538 35.2388 38.9419C37.119 41.8361 39.3678 46.3922 39.3678 51.5066C39.3678 52.0896 38.8967 52.562 38.3154 52.562H25.6832C25.1019 52.562 24.6309 52.0896 24.6309 51.5066C24.6309 46.3935 26.8809 41.8361 28.7611 38.9419C29.0778 38.4538 29.7305 38.3159 30.2171 38.6334C30.7037 38.951 30.8412 39.6056 30.5246 40.0949C28.9454 42.5245 27.0522 46.2347 26.7719 50.4512H37.228Z" fill="#37008F"/>
<path d="M37.1217 24.2128C37.7894 21.3756 36.0373 18.5328 33.2083 17.8631C30.3793 17.1935 27.5447 18.9506 26.877 21.7878C26.2092 24.625 27.9613 27.4679 30.7903 28.1375C33.6193 28.8072 36.4539 27.05 37.1217 24.2128Z" fill="#F58622"/>
<path fill-rule="evenodd" clip-rule="evenodd" d="M29.6126 19.5255C30.2912 19.0544 31.1152 18.7798 32.0015 18.7798C34.3255 18.7798 36.2122 20.672 36.2122 23.0027C36.2122 25.3335 34.3255 27.2257 32.0015 27.2257C29.6775 27.2257 27.7908 25.3335 27.7908 23.0027C27.7908 22.4197 27.3197 21.9473 26.7384 21.9473C26.1571 21.9473 25.686 22.4197 25.686 23.0027C25.686 26.4982 28.5161 29.3365 32.0015 29.3365C35.4869 29.3365 38.3169 26.4982 38.3169 23.0027C38.3169 19.5072 35.4869 16.6689 32.0015 16.6689C30.6701 16.6689 29.4348 17.0828 28.4149 17.7894C27.9374 18.1213 27.8167 18.7785 28.1476 19.2587C28.4785 19.7376 29.1338 19.8586 29.6113 19.5268L29.6126 19.5255Z" fill="#37008F"/>
</g>
<defs>
<clipPath id="clip0_941_60709">
<rect width="40" height="57" fill="white" transform="translate(12 4)"/>
</clipPath>
</defs>
</svg>
