<svg width="110" height="110" viewBox="0 0 110 110" fill="none" xmlns="http://www.w3.org/2000/svg">
<g clip-path="url(#clip0_941_60702)">
<path fill-rule="evenodd" clip-rule="evenodd" d="M54.2007 70.2636L77.5596 56.8184L97.231 90.7856L81.0822 89.7881L73.8743 104.231L54.2029 70.2636H54.2007Z" fill="#C7CEFF"/>
<path fill-rule="evenodd" clip-rule="evenodd" d="M94.0312 88.817L76.0134 57.7041C75.5231 56.8579 75.8155 55.7749 76.6621 55.2882C77.5109 54.7994 78.5971 55.0909 79.0853 55.935L98.7566 89.9022C99.0843 90.4656 99.0733 91.1649 98.7281 91.7174C98.385 92.272 97.7627 92.5921 97.1097 92.5526L82.1351 91.6275L75.4505 105.02C75.1602 105.603 74.5709 105.98 73.9179 106C73.2648 106.02 72.6535 105.68 72.3259 105.117L60.7838 85.1866C60.2935 84.3403 60.5859 83.2574 61.4325 82.7707C62.2813 82.2818 63.3675 82.5734 63.8557 83.4174L73.7441 100.493L79.4811 89.0011C79.7977 88.3654 80.4684 87.9795 81.1786 88.0234L94.029 88.817H94.0312Z" fill="#37008F"/>
<path fill-rule="evenodd" clip-rule="evenodd" d="M55.5807 70.5266L32.2921 57.1208L12.7725 90.8272L28.853 89.8692L36.061 104.233L55.5807 70.5266Z" fill="#C7CEFF"/>
<path fill-rule="evenodd" clip-rule="evenodd" d="M36.1784 100.5L54.0489 69.641C54.5392 68.7948 55.6255 68.5054 56.4721 68.9943C57.3209 69.4832 57.6111 70.5661 57.1208 71.4102L37.6011 105.117C37.2757 105.68 36.6644 106.02 36.0113 106C35.3582 105.98 34.7689 105.605 34.4765 105.024L27.7918 91.7063L12.8811 92.5942C12.2302 92.6337 11.6079 92.3114 11.2649 91.7589C10.9219 91.2043 10.9109 90.5071 11.2385 89.9437L22.3166 70.8139C22.8069 69.9677 23.8932 69.6783 24.7398 70.1672C25.5885 70.656 25.8788 71.739 25.3884 72.583L15.9595 88.8673L28.7483 88.1044C29.4564 88.0627 30.1227 88.4464 30.4415 89.0778L36.174 100.502L36.1784 100.5Z" fill="#37008F"/>
<path d="M55.3599 75.4529C72.9994 75.4529 87.299 61.1963 87.299 43.61C87.299 26.0236 72.9994 11.7671 55.3599 11.7671C37.7205 11.7671 23.4209 26.0236 23.4209 43.61C23.4209 61.1963 37.7205 75.4529 55.3599 75.4529Z" fill="white"/>
<path fill-rule="evenodd" clip-rule="evenodd" d="M80.1106 26.4224C83.5255 31.2958 85.5287 37.2238 85.5287 43.6143C85.5287 60.212 72.0121 73.688 55.3642 73.688C38.7163 73.688 25.1997 60.212 25.1997 43.6143C25.1997 27.0165 38.7141 13.5383 55.362 13.5383C62.1918 13.5383 68.4938 15.8052 73.5513 19.6263C74.3319 20.216 75.4445 20.0626 76.0382 19.2843C76.6297 18.5061 76.4758 17.3946 75.6952 16.8048C70.0396 12.5343 62.9966 10 55.362 10C36.7549 10 21.6484 25.061 21.6484 43.6121C21.6484 62.1631 36.7549 77.2241 55.362 77.2241C73.9691 77.2241 89.0755 62.1631 89.0755 43.6121C89.0755 36.4674 86.8348 29.8423 83.0176 24.3945C82.4568 23.5943 81.3486 23.3992 80.546 23.9583C79.7434 24.5173 79.5455 25.6222 80.1084 26.4224H80.1106Z" fill="#37008F"/>
<path d="M55.3602 24.8528L60.8971 36.0378L73.2791 37.8311L64.3208 46.5366L66.4361 58.8288L55.3624 53.0236L44.2888 58.8288L46.4041 46.5366L37.4458 37.8311L49.8256 36.0378L55.3624 24.8528H55.3602Z" fill="#F58622"/>
<path fill-rule="evenodd" clip-rule="evenodd" d="M48.6443 34.4222L53.7677 24.0725C54.0668 23.4696 54.6846 23.0859 55.3597 23.0859C56.0348 23.0859 56.6527 23.4674 56.9517 24.0725L62.0751 34.4222L73.5336 36.0818C74.2021 36.1782 74.7562 36.6452 74.9651 37.2853C75.174 37.9255 75.0003 38.6292 74.5165 39.0984L66.2267 47.155L68.1837 58.5307C68.298 59.195 68.0232 59.8658 67.4778 60.2604C66.9303 60.6572 66.2069 60.7077 65.6088 60.3942L55.3619 55.0231L45.115 60.3942C44.5169 60.7077 43.7935 60.6551 43.246 60.2604C42.6984 59.8658 42.4258 59.195 42.5401 58.5307L44.6555 46.2364C44.8204 45.274 45.7395 44.6273 46.7048 44.7917C47.6701 44.9561 48.3188 45.8725 48.1539 46.8349L46.6477 55.5953L54.5373 51.4584C55.0541 51.1866 55.6719 51.1866 56.1887 51.4584L64.0783 55.5953L62.5721 46.8349C62.4731 46.2605 62.6645 45.6752 63.0822 45.2696L69.4657 39.0655L60.6437 37.7874C60.0654 37.7041 59.5662 37.3423 59.3067 36.8206L55.3619 28.8494L51.4171 36.8206C51.1576 37.3423 50.6585 37.7041 50.0801 37.7874L41.2582 39.0655L43.3471 41.0955C44.0486 41.7773 44.0618 42.8976 43.3801 43.5969C42.6962 44.2963 41.5726 44.3094 40.8712 43.6298L36.2095 39.0984C35.7257 38.6292 35.552 37.9255 35.7609 37.2853C35.9698 36.6452 36.5239 36.1782 37.1924 36.0818L48.6487 34.4222H48.6443Z" fill="#37008F"/>
</g>
<defs>
<clipPath id="clip0_941_60702">
<rect width="88" height="96" fill="white" transform="translate(11 10)"/>
</clipPath>
</defs>
</svg>
