<svg width="64" height="64" viewBox="0 0 64 64" fill="none" xmlns="http://www.w3.org/2000/svg">
<g clip-path="url(#clip0_941_60710)">
<path fill-rule="evenodd" clip-rule="evenodd" d="M7.8498 53.9542C4.81965 49.4657 3.05371 44.0722 3.05371 38.2728C3.05371 22.6938 15.8005 10.0454 31.5006 10.0454C47.2008 10.0454 59.9476 22.6938 59.9476 38.2728C59.9476 44.0722 58.1803 49.467 55.1515 53.9542H7.8498Z" fill="white"/>
<path fill-rule="evenodd" clip-rule="evenodd" d="M16.023 53.9542H7.85127C4.82111 49.4657 3.05518 44.0722 3.05518 38.2728C3.05385 22.6938 15.8006 10.0454 31.5008 10.0454C47.2009 10.0454 59.9477 22.6938 59.9477 38.2728C59.9477 44.0722 58.1804 49.467 55.1516 53.9542H46.9799C51.081 49.9688 53.6266 44.4137 53.6266 38.2728C53.6266 26.1551 43.7127 16.319 31.5021 16.319C19.2915 16.319 9.37627 26.1551 9.37627 38.2728C9.37627 44.4137 11.9232 49.9688 16.023 53.9542Z" fill="#C7CEFF"/>
<path fill-rule="evenodd" clip-rule="evenodd" d="M47.7156 54.7016C52.0113 50.5258 54.6787 44.7067 54.6787 38.2728C54.6787 25.5784 44.2923 15.2734 31.5005 15.2734C18.7087 15.2734 8.32227 25.5784 8.32227 38.2728C8.32227 44.7067 10.9897 50.5258 15.2854 54.7016C15.7011 55.1049 16.3683 55.0983 16.7747 54.6859C17.1811 54.2734 17.1744 53.6114 16.7588 53.2081C12.8536 49.4119 10.4284 44.1221 10.4284 38.2728C10.4284 26.733 19.8697 17.3633 31.5005 17.3633C43.1313 17.3633 52.5726 26.7317 52.5726 38.2728C52.5726 44.1208 50.1474 49.4119 46.2422 53.2081C45.8266 53.6114 45.8199 54.2747 46.2263 54.6859C46.6327 55.0983 47.3013 55.1049 47.7156 54.7016Z" fill="#37008F"/>
<path fill-rule="evenodd" clip-rule="evenodd" d="M6.9748 54.5363C7.17072 54.8266 7.49902 55 7.84983 55H55.1502C55.501 55 55.8293 54.8266 56.0252 54.5363C59.1665 49.8823 61 44.2878 61 38.273C61 22.116 47.782 9 31.5007 9C15.2194 9 2 22.116 2 38.273C2 44.2878 3.83213 49.8823 6.9748 54.5363ZM8.41906 52.9088C5.6894 48.6817 4.10747 43.6586 4.10747 38.273C4.10747 23.2707 16.3817 11.0912 31.5007 11.0912C46.6197 11.0912 58.8939 23.2707 58.8939 38.273C58.8939 43.6586 57.3119 48.6817 54.5823 52.9088H8.41906Z" fill="#37008F"/>
<path fill-rule="evenodd" clip-rule="evenodd" d="M52.5725 36.1816H48.3589C47.7778 36.1816 47.3052 36.6506 47.3052 37.2272C47.3052 37.8039 47.7778 38.2729 48.3589 38.2729H52.5725C53.1537 38.2729 53.6263 37.8039 53.6263 37.2272C53.6263 36.6506 53.1537 36.1816 52.5725 36.1816Z" fill="#37008F"/>
<path fill-rule="evenodd" clip-rule="evenodd" d="M14.6433 36.1816H10.4297C9.84857 36.1816 9.37598 36.6506 9.37598 37.2272C9.37598 37.8039 9.84857 38.2729 10.4297 38.2729H14.6433C15.2245 38.2729 15.6971 37.8039 15.6971 37.2272C15.6971 36.6506 15.2245 36.1816 14.6433 36.1816Z" fill="#37008F"/>
<path fill-rule="evenodd" clip-rule="evenodd" d="M17.4288 27.959L13.7791 25.8678C13.276 25.5788 12.63 25.7509 12.3401 26.2501C12.0489 26.7492 12.2223 27.3903 12.7253 27.6779L16.375 29.7691C16.8781 30.0581 17.5241 29.886 17.814 29.3869C18.1052 28.8877 17.9318 28.2467 17.4288 27.959Z" fill="#37008F"/>
<path fill-rule="evenodd" clip-rule="evenodd" d="M15.6587 44.6857L12.009 46.7769C11.506 47.0659 11.3326 47.7056 11.6238 48.2048C11.915 48.7039 12.5597 48.876 13.0628 48.587L16.7124 46.4958C17.2155 46.2068 17.3889 45.5671 17.0977 45.0679C16.8064 44.5688 16.1617 44.3967 15.6587 44.6857Z" fill="#37008F"/>
<path fill-rule="evenodd" clip-rule="evenodd" d="M23.9842 22.2183L21.8767 18.5968C21.5855 18.0976 20.9408 17.9255 20.4377 18.2145C19.9347 18.5035 19.7613 19.1432 20.0525 19.6424L22.16 23.2639C22.4512 23.763 23.0959 23.9351 23.5989 23.6461C24.102 23.3571 24.2754 22.7174 23.9842 22.2183Z" fill="#37008F"/>
<path fill-rule="evenodd" clip-rule="evenodd" d="M32.5543 20.5001V16.319C32.5543 15.7424 32.0817 15.2734 31.5005 15.2734C30.9194 15.2734 30.4468 15.7424 30.4468 16.319V20.5001C30.4468 21.0768 30.9194 21.5457 31.5005 21.5457C32.0817 21.5457 32.5543 21.0768 32.5543 20.5001Z" fill="#37008F"/>
<path fill-rule="evenodd" clip-rule="evenodd" d="M40.8425 23.2639L42.95 19.6424C43.2412 19.1432 43.0678 18.5022 42.5648 18.2145C42.0617 17.9255 41.4157 18.0976 41.1258 18.5968L39.0183 22.2183C38.7271 22.7174 38.9005 23.3585 39.4035 23.6461C39.9066 23.9351 40.5526 23.763 40.8425 23.2639Z" fill="#37008F"/>
<path fill-rule="evenodd" clip-rule="evenodd" d="M46.6265 29.7691L50.2762 27.6779C50.7793 27.3889 50.9527 26.7492 50.6614 26.2501C50.3702 25.7509 49.7255 25.5788 49.2225 25.8678L45.5728 27.959C45.0684 28.248 44.8963 28.8877 45.1876 29.3869C45.4788 29.886 46.1235 30.0581 46.6265 29.7691Z" fill="#37008F"/>
<path fill-rule="evenodd" clip-rule="evenodd" d="M46.7771 46.4973L50.4268 48.5885C50.9298 48.8775 51.5758 48.7054 51.8657 48.2062C52.157 47.7071 51.9836 47.066 51.4805 46.7784L47.8308 44.6872C47.3278 44.3982 46.6818 44.5702 46.3919 45.0694C46.1006 45.5686 46.274 46.2096 46.7771 46.4973Z" fill="#37008F"/>
<path fill-rule="evenodd" clip-rule="evenodd" d="M41.9309 30.9549L33.7366 43.5219C32.5028 44.7461 30.4999 44.7461 29.2661 43.5219C28.0324 42.2976 28.0324 40.3102 29.2661 39.0859L41.9309 30.9536V30.9549Z" fill="#F58622"/>
<path fill-rule="evenodd" clip-rule="evenodd" d="M37.1531 35.2675L38.3737 34.4833L32.917 42.852C32.0883 43.5981 30.8082 43.5745 30.01 42.7837C29.2117 41.9916 29.1879 40.7201 29.9398 39.9004C29.9411 39.8991 33.1328 37.85 33.1328 37.85C33.6213 37.536 33.7603 36.8884 33.4452 36.4037C33.1288 35.919 32.4762 35.7811 31.9877 36.0937L28.6928 38.2086C28.6306 38.248 28.5723 38.2953 28.5207 38.3465C26.8766 39.9779 26.8766 42.6287 28.5207 44.2602C30.1649 45.8916 32.8363 45.8916 34.4804 44.2602C34.5334 44.2076 34.5797 44.1512 34.6194 44.0894L42.815 31.5225C43.085 31.1087 43.0268 30.5636 42.676 30.2155C42.3252 29.8674 41.7758 29.8096 41.3588 30.0775L36.0094 33.5125C35.5209 33.8265 35.3819 34.4741 35.697 34.9588C36.0134 35.4435 36.666 35.5814 37.1545 35.2688L37.1531 35.2675Z" fill="#37008F"/>
</g>
<defs>
<clipPath id="clip0_941_60710">
<rect width="59" height="46" fill="white" transform="translate(2 9)"/>
</clipPath>
</defs>
</svg>
