<svg width="64" height="64" viewBox="0 0 64 64" fill="none" xmlns="http://www.w3.org/2000/svg">
<g clip-path="url(#clip0_941_60713)">
<path fill-rule="evenodd" clip-rule="evenodd" d="M45.182 45.2515H17.8184C17.8184 45.2515 19.3206 51.7919 20.1744 55.5106C20.5114 56.9792 21.8132 58.0193 23.3119 58.0193H39.6885C41.1884 58.0193 42.489 56.9792 42.8259 55.5106C43.6797 51.7919 45.182 45.2515 45.182 45.2515Z" fill="white"/>
<path fill-rule="evenodd" clip-rule="evenodd" d="M18.0899 50.8015C18.0899 50.8015 18.6261 53.139 19.0983 55.1937C19.6103 57.422 21.5836 58.9998 23.86 58.9998H39.1401C41.4153 58.9998 43.3897 57.4208 43.9018 55.1937C44.7689 51.4168 46.1347 45.471 46.1347 45.471C46.2554 44.9431 45.9282 44.4151 45.4029 44.2937C44.8775 44.1724 44.3522 44.5013 44.2302 45.0304C44.2302 45.0304 42.8644 50.9762 41.9973 54.7532C41.6906 56.0906 40.5059 57.0373 39.1401 57.0373H23.86C22.4942 57.0373 21.3107 56.0906 21.0027 54.7532C20.5306 52.6996 19.9944 50.3609 19.9944 50.3609C19.8736 49.8329 19.3483 49.5028 18.823 49.6254C18.2977 49.7468 17.9692 50.2747 18.0899 50.8027V50.8015Z" fill="#37008F"/>
<path d="M39.1012 23.4238C43.2995 19.2046 43.2995 12.3638 39.1012 8.14452C34.903 3.92525 28.0963 3.92525 23.898 8.14452C19.6997 12.3638 19.6997 19.2046 23.898 23.4238C28.0963 27.6431 34.903 27.6431 39.1012 23.4238Z" fill="#C7CEFF"/>
<path fill-rule="evenodd" clip-rule="evenodd" d="M31.5005 5.96494C36.8937 5.96494 41.2738 10.3657 41.2738 15.7872C41.2738 21.2087 36.895 25.6082 31.5005 25.6082C26.106 25.6082 21.7284 21.2074 21.7284 15.7872C21.7284 12.9921 22.8925 10.4677 24.7607 8.67871C25.1508 8.3049 25.1653 7.68228 24.7933 7.29027C24.4214 6.89825 23.8019 6.88369 23.4118 7.2575C21.1716 9.40448 19.7744 12.4338 19.7744 15.7872C19.7744 22.2925 25.0288 27.5732 31.5017 27.5732C37.9746 27.5732 43.229 22.2925 43.229 15.7872C43.229 9.2819 37.9722 4 31.5005 4C30.9607 4 30.5235 4.44056 30.5235 4.98186C30.5235 5.52316 30.9619 5.96372 31.5005 5.96372V5.96494Z" fill="#37008F"/>
<path fill-rule="evenodd" clip-rule="evenodd" d="M30.5234 26.5888V40.3397C30.5234 40.8822 30.9618 41.3216 31.5004 41.3216C32.039 41.3216 32.4774 40.881 32.4774 40.3397V26.5888C32.4774 26.0463 32.039 25.6069 31.5004 25.6069C30.9618 25.6069 30.5234 26.0475 30.5234 26.5888Z" fill="#37008F"/>
<path fill-rule="evenodd" clip-rule="evenodd" d="M30.5234 8.91057V11.8574C30.5234 12.3999 30.9618 12.8392 31.5004 12.8392C32.039 12.8392 32.4774 12.3987 32.4774 11.8574V8.91057C32.4774 8.36806 32.039 7.92871 31.5004 7.92871C30.9618 7.92871 30.5234 8.36927 30.5234 8.91057Z" fill="#37008F"/>
<path fill-rule="evenodd" clip-rule="evenodd" d="M30.5234 19.7148V22.6616C30.5234 23.2041 30.9618 23.6434 31.5004 23.6434C32.039 23.6434 32.4774 23.2029 32.4774 22.6616V19.7148C32.4774 19.1723 32.039 18.7329 31.5004 18.7329C30.9618 18.7329 30.5234 19.1735 30.5234 19.7148Z" fill="#37008F"/>
<path fill-rule="evenodd" clip-rule="evenodd" d="M34.4315 17.7495H33.4546C33.4546 17.207 33.0174 16.7676 32.4776 16.7676H30.5225C28.903 16.7676 27.5903 15.4484 27.5903 13.8208C27.5903 12.1933 28.903 10.874 30.5225 10.874H34.4315C34.9714 10.874 35.4085 11.3146 35.4085 11.8559C35.4085 12.3972 34.9701 12.8377 34.4315 12.8377H30.5225C29.9826 12.8377 29.5455 13.2771 29.5455 13.8196C29.5455 14.3621 29.9826 14.8015 30.5225 14.8015H32.4764C34.0958 14.8015 35.4085 16.1207 35.4085 17.7483C35.4085 19.3758 34.0958 20.6951 32.4764 20.6951H28.5673C28.0275 20.6951 27.5903 20.2545 27.5903 19.7132C27.5903 19.1719 28.0287 18.7313 28.5673 18.7313H32.4764C33.0162 18.7313 33.4534 18.292 33.4534 17.7495H34.4303H34.4315Z" fill="#37008F"/>
<path fill-rule="evenodd" clip-rule="evenodd" d="M40.7355 33.2797C40.4517 32.4944 40.2959 31.6473 40.2959 30.7637C40.2959 26.6979 43.5806 23.3979 47.625 23.3979C49.0826 23.3979 50.4412 23.8264 51.5836 24.5643C51.8686 25.3495 52.0232 26.1967 52.0232 27.0802C52.0232 31.146 48.7384 34.446 44.6941 34.446C43.2365 34.446 41.8779 34.0176 40.7355 33.2797Z" fill="white"/>
<path fill-rule="evenodd" clip-rule="evenodd" d="M50.7693 25.2162C49.8419 24.6834 48.7683 24.3788 47.6247 24.3788C47.0848 24.3788 46.6477 23.9382 46.6477 23.3969C46.6477 22.8556 47.0861 22.415 47.6247 22.415C49.2767 22.415 50.8176 22.9005 52.1122 23.7379C52.2921 23.8545 52.4286 24.0268 52.5023 24.2283C52.8247 25.1191 53.001 26.0791 53.001 27.0804C53.001 31.6875 49.2791 35.4292 44.6937 35.4292C43.0417 35.4292 41.502 34.9438 40.2062 34.1063C40.0263 33.9898 39.8898 33.8175 39.8161 33.616C39.4937 32.7252 39.3174 31.7652 39.3174 30.7639C39.3174 27.9834 40.6723 25.5184 42.7555 24.0013C43.1927 23.6833 43.8037 23.7816 44.1201 24.2198C44.4365 24.6591 44.3387 25.2732 43.9027 25.5912C42.3099 26.7515 41.2725 28.6363 41.2725 30.7639C41.2725 31.412 41.3691 32.0382 41.5479 32.6281C42.4753 33.1609 43.5489 33.4655 44.6925 33.4655C48.1983 33.4655 51.0447 30.6049 51.0447 27.0816C51.0447 26.4335 50.948 25.8073 50.7693 25.2174V25.2162Z" fill="#37008F"/>
<path fill-rule="evenodd" clip-rule="evenodd" d="M22.2647 33.2797C22.5485 32.4944 22.7043 31.6473 22.7043 30.7637C22.7043 26.6979 19.4196 23.3979 15.3752 23.3979C13.9176 23.3979 12.559 23.8264 11.4166 24.5643C11.1328 25.3495 10.9771 26.1967 10.9771 27.0802C10.9771 31.146 14.2618 34.446 18.3061 34.446C19.7638 34.446 21.1223 34.0176 22.2647 33.2797Z" fill="white"/>
<path fill-rule="evenodd" clip-rule="evenodd" d="M21.4519 32.6269C21.6319 32.037 21.7273 31.4108 21.7273 30.7627C21.7273 30.2202 22.1656 29.7808 22.7042 29.7808C23.2428 29.7808 23.6812 30.2214 23.6812 30.7627C23.6812 31.764 23.5049 32.724 23.1825 33.6148C23.11 33.8163 22.9723 33.9886 22.7924 34.1051C21.4978 34.9426 19.9581 35.428 18.3049 35.428C13.7219 35.428 10 31.6875 10 27.0804C10 26.0791 10.1763 25.1191 10.4988 24.2283C10.5712 24.0268 10.7089 23.8545 10.8888 23.7379C12.1834 22.9005 13.7231 22.415 15.3764 22.415C17.6334 22.415 19.6803 23.3217 21.1778 24.7914C21.5642 25.1701 21.5715 25.7927 21.1947 26.1799C20.8179 26.5682 20.1984 26.5755 19.8132 26.1968C18.6684 25.073 17.1021 24.38 15.3764 24.38C14.2327 24.38 13.1592 24.6846 12.2317 25.2174C12.0518 25.8073 11.9564 26.4335 11.9564 27.0816C11.9564 30.6049 14.8027 33.4655 18.3085 33.4655C19.4521 33.4655 20.5257 33.1609 21.4531 32.6281L21.4519 32.6269Z" fill="#37008F"/>
<path fill-rule="evenodd" clip-rule="evenodd" d="M46.5501 27.7684L30.9138 39.5544C30.4826 39.8796 30.3945 40.4962 30.7181 40.9295C31.0418 41.3628 31.6552 41.4514 32.0864 41.1261L47.7227 29.3401C48.1538 29.0149 48.242 28.3983 47.9184 27.965C47.5947 27.5317 46.9812 27.4431 46.5501 27.7684Z" fill="#37008F"/>
<path fill-rule="evenodd" clip-rule="evenodd" d="M15.2775 29.3401L30.9139 41.1261C31.345 41.4514 31.9585 41.3628 32.2821 40.9295C32.6058 40.4962 32.5176 39.8796 32.0865 39.5544L16.4501 27.7684C16.019 27.4431 15.4055 27.5317 15.0819 27.965C14.7582 28.3983 14.8464 29.0149 15.2775 29.3401Z" fill="#37008F"/>
<path fill-rule="evenodd" clip-rule="evenodd" d="M48.1129 40.977C48.1129 40.5473 47.9426 40.1359 47.6407 39.8325C47.3388 39.529 46.9294 39.3579 46.5019 39.3579H16.496C16.0685 39.3579 15.6591 39.529 15.3572 39.8325C15.0553 40.1359 14.8862 40.5473 14.8862 40.977V43.6337C14.8862 44.0633 15.0565 44.4748 15.3572 44.7782C15.6591 45.0816 16.0685 45.2515 16.496 45.2515H46.5031C46.9306 45.2515 47.34 45.0804 47.6419 44.7782C47.9438 44.476 48.1141 44.0633 48.1141 43.6337V40.977H48.1129Z" fill="#F58622"/>
<path fill-rule="evenodd" clip-rule="evenodd" d="M39.3189 46.2321H46.1601C47.7795 46.2321 49.0922 44.9128 49.0922 43.2853V41.3203C49.0922 39.6928 47.7795 38.3735 46.1601 38.3735H16.8413C15.2219 38.3735 13.9092 39.6928 13.9092 41.3203V43.2853C13.9092 44.9128 15.2219 46.2321 16.8413 46.2321H30.5237C31.0635 46.2321 31.5007 45.7915 31.5007 45.2502C31.5007 44.7089 31.0623 44.2683 30.5237 44.2683H16.8413C16.3015 44.2683 15.8643 43.829 15.8643 43.2865V41.3215C15.8643 40.779 16.3015 40.3397 16.8413 40.3397H46.1601C46.6999 40.3397 47.1371 40.779 47.1371 41.3215V43.2865C47.1371 43.829 46.6999 44.2683 46.1601 44.2683H39.3189C38.7791 44.2683 38.3419 44.7089 38.3419 45.2502C38.3419 45.7915 38.7803 46.2321 39.3189 46.2321Z" fill="#37008F"/>
</g>
<defs>
<clipPath id="clip0_941_60713">
<rect width="43" height="55" fill="white" transform="translate(10 4)"/>
</clipPath>
</defs>
</svg>
