<svg width="64" height="64" viewBox="0 0 64 64" fill="none" xmlns="http://www.w3.org/2000/svg">
<g clip-path="url(#clip0_941_60711)">
<path fill-rule="evenodd" clip-rule="evenodd" d="M26.8065 12.2688V6.03809H9.49825C7.58664 6.03809 6.03711 7.58765 6.03711 9.49931V26.808H12.2677C12.2677 24.5148 14.1287 22.6538 16.4218 22.6538C18.715 22.6538 20.576 24.5148 20.576 26.808H26.8065V20.5773C29.0997 20.5773 30.9607 18.7163 30.9607 16.423C30.9607 14.1298 29.0997 12.2688 26.8065 12.2688Z" fill="#C7CEFF"/>
<path fill-rule="evenodd" clip-rule="evenodd" d="M21.5115 25.7699H26.8076C27.3813 25.7699 27.8459 26.2358 27.8459 26.8082C27.8459 27.3805 27.38 27.8464 26.8076 27.8464H20.5771C20.0035 27.8464 19.5389 27.3818 19.5389 26.8082C19.5389 25.0886 18.1425 23.6922 16.4229 23.6922C14.7034 23.6922 13.307 25.0886 13.307 26.8082C13.307 27.3818 12.8424 27.8464 12.2688 27.8464H6.03821C5.4646 27.8464 5 27.3818 5 26.8082V10.1925C5 8.81552 5.54636 7.49436 6.52098 6.52102C7.4943 5.54767 8.81543 5 10.1924 5H26.8076C27.3813 5 27.8459 5.46461 27.8459 6.03824V11.3345C30.2143 11.816 32 13.9133 32 16.4232C32 19.2887 29.6731 21.6157 26.8076 21.6157C26.234 21.6157 25.7694 21.1498 25.7694 20.5774C25.7694 20.0051 26.2353 19.5392 26.8076 19.5392C28.5272 19.5392 29.9236 18.1428 29.9236 16.4232C29.9236 14.7036 28.5272 13.3085 26.8076 13.3085C26.234 13.3085 25.7694 12.8439 25.7694 12.2703V7.07647H10.1924C9.36568 7.07647 8.57404 7.40482 7.98875 7.98882C7.40346 8.57283 7.07642 9.36579 7.07642 10.1912V25.7686H11.3344C11.8159 23.4002 13.9118 21.6144 16.4229 21.6144C18.9341 21.6144 21.03 23.3989 21.5115 25.7686V25.7699Z" fill="#37008F"/>
<path fill-rule="evenodd" clip-rule="evenodd" d="M37.1922 51.7311V57.9618H54.5005C56.4121 57.9618 57.9617 56.4123 57.9617 54.5006V37.1919H51.7311C51.7311 39.4851 49.8701 41.3461 47.5769 41.3461C45.2838 41.3461 43.4228 39.4851 43.4228 37.1919H37.1922V43.4226C34.8991 43.4226 33.0381 45.2837 33.0381 47.5769C33.0381 49.8701 34.8991 51.7311 37.1922 51.7311Z" fill="#F58622"/>
<path fill-rule="evenodd" clip-rule="evenodd" d="M37.1925 59.0002H53.8078C55.1847 59.0002 56.5058 58.4525 57.4792 57.4792C58.4525 56.5058 59.0002 55.1847 59.0002 53.8077V37.192C59.0002 36.6184 58.5343 36.1538 57.9619 36.1538C57.3896 36.1538 56.9237 36.6197 56.9237 37.192V53.8077C56.9237 54.6344 56.5954 55.4261 56.0114 56.0114C55.4274 56.5954 54.6345 56.9237 53.8078 56.9237H37.1925C36.6189 56.9237 36.1543 57.3896 36.1543 57.962C36.1543 58.5343 36.6202 59.0002 37.1925 59.0002Z" fill="#37008F"/>
<path fill-rule="evenodd" clip-rule="evenodd" d="M51.7298 37.1933H57.9603V19.8846C57.9603 17.9729 56.4108 16.4233 54.4992 16.4233H37.1909V22.6541C39.4841 22.6541 41.3451 24.5151 41.3451 26.8083C41.3451 29.1015 39.4841 30.9626 37.1909 30.9626V37.1933H43.4215C43.4215 39.4865 45.2825 41.3475 47.5756 41.3475C49.8688 41.3475 51.7298 39.4865 51.7298 37.1933Z" fill="white"/>
<path fill-rule="evenodd" clip-rule="evenodd" d="M21.7177 36.1538C22.1992 33.7853 24.2963 31.9995 26.8062 31.9995C29.3161 31.9995 31.4133 33.784 31.8948 36.1538H37.1909C37.7646 36.1538 38.2292 36.6184 38.2292 37.192V43.4227C38.2292 43.9963 37.7633 44.4609 37.1909 44.4609C36.6186 44.4609 36.1527 43.9963 36.1527 43.4227V38.2302H30.9604C30.3868 38.2302 29.9222 37.7656 29.9222 37.192C29.9222 35.4724 28.5258 34.076 26.8062 34.076C25.0867 34.076 23.6916 35.4724 23.6916 37.192C23.6916 37.7656 23.227 38.2302 22.6534 38.2302H17.461V53.8077C17.461 54.6344 17.7894 55.426 18.3734 56.0113C18.9573 56.5953 19.7503 56.9237 20.5757 56.9237H26.3806C26.9542 56.9237 27.4188 57.3896 27.4188 57.9619C27.4188 58.5343 26.9529 59.0002 26.3806 59.0002H20.5757C19.1987 59.0002 17.8776 58.4525 16.9043 57.4791C15.931 56.5058 15.3833 55.1846 15.3833 53.8077V37.192C15.3833 36.6184 15.8479 36.1538 16.4215 36.1538H21.7177Z" fill="#37008F"/>
<path fill-rule="evenodd" clip-rule="evenodd" d="M36.1529 52.6655C33.7845 52.184 31.9988 50.088 31.9988 47.5768C31.9988 47.0032 32.4647 46.5386 33.037 46.5386C33.6093 46.5386 34.0752 47.0045 34.0752 47.5768C34.0752 49.2964 35.4716 50.6928 37.1911 50.6928C37.7648 50.6928 38.2294 51.1574 38.2294 51.7311V57.9618C38.2294 58.5354 37.7648 59 37.1911 59H30.9606C30.387 59 29.9224 58.5341 29.9224 57.9618C29.9224 57.3894 30.3883 56.9235 30.9606 56.9235H36.1529V52.6655Z" fill="#37008F"/>
<path fill-rule="evenodd" clip-rule="evenodd" d="M56.921 36.1535V26.8068C56.921 26.2332 57.3869 25.7686 57.9592 25.7686C58.5315 25.7686 58.9974 26.2345 58.9974 26.8068V37.1918C58.9974 37.7654 58.5328 38.23 57.9592 38.23H51.7286C51.155 38.23 50.6904 37.7641 50.6904 37.1918C50.6904 36.6194 51.1563 36.1535 51.7286 36.1535H56.921Z" fill="#37008F"/>
<path fill-rule="evenodd" clip-rule="evenodd" d="M42.4887 38.2313H37.1925C36.6189 38.2313 36.1543 37.7667 36.1543 37.1931V30.9624C36.1543 30.3888 36.6189 29.9241 37.1925 29.9241C38.912 29.9241 40.3071 28.5277 40.3071 26.8094C40.3071 25.0912 38.9107 23.6934 37.1925 23.6934C36.6189 23.6934 36.1543 23.2288 36.1543 22.6552V16.4245C36.1543 15.8508 36.6189 15.3862 37.1925 15.3862H53.8078C56.6759 15.3862 59.0002 17.7106 59.0002 20.5787V21.6169H56.9237V20.5787C56.9237 18.8578 55.5286 17.464 53.8078 17.464H38.2307V21.7221C40.5991 22.2036 42.3849 24.3008 42.3849 26.8107C42.3849 29.3207 40.6004 31.4166 38.2307 31.8994V36.1575H43.4231C43.9967 36.1575 44.4613 36.6221 44.4613 37.1957C44.4613 38.9153 45.8577 40.3117 47.5772 40.3117C48.1508 40.3117 48.6154 40.7763 48.6154 41.3499C48.6154 41.9236 48.1495 42.3882 47.5772 42.3882C45.0673 42.3882 42.9702 40.6037 42.4887 38.2339V38.2313Z" fill="#37008F"/>
</g>
<defs>
<clipPath id="clip0_941_60711">
<rect width="54" height="54" fill="white" transform="translate(5 5)"/>
</clipPath>
</defs>
</svg>
