<svg width="64" height="64" viewBox="0 0 64 64" fill="none" xmlns="http://www.w3.org/2000/svg">
<g clip-path="url(#clip0_941_60712)">
<path fill-rule="evenodd" clip-rule="evenodd" d="M58.921 19.3924C58.921 17.1783 58.0134 15.0555 56.3971 13.4895C54.7808 11.9234 52.59 11.0439 50.3049 11.0439H13.6908C11.4057 11.0439 9.21489 11.9234 7.59863 13.4895C5.98236 15.0555 5.07471 17.1783 5.07471 19.3924V41.3056C5.07471 43.5197 5.98236 45.6425 7.59863 47.2085C9.21489 48.7746 11.4057 49.654 13.6908 49.654H16.922V56.9584L34.0825 49.654H50.3062C52.5913 49.654 54.7822 48.7746 56.3984 47.2085C58.0147 45.6425 58.9223 43.5197 58.9223 41.3056V19.3924H58.921Z" fill="white"/>
<path fill-rule="evenodd" clip-rule="evenodd" d="M60.0002 31.9132V19.3912C60.0002 14.2044 55.661 10 50.3079 10H24.4623C23.8678 10 23.3848 10.468 23.3848 11.044C23.3848 11.6201 23.8678 12.0881 24.4623 12.0881H50.3079C54.4707 12.0881 57.8465 15.3578 57.8465 19.3925V31.9145C57.8465 32.4905 58.3295 32.9585 58.924 32.9585C59.5185 32.9585 60.0015 32.4905 60.0015 31.9145L60.0002 31.9132Z" fill="#37008F"/>
<path fill-rule="evenodd" clip-rule="evenodd" d="M15.846 50.6956H13.6923C11.1219 50.6956 8.65638 49.7056 6.83842 47.9454C5.02178 46.1839 4 43.7962 4 41.3044V19.3925C4 16.902 5.02178 14.513 6.83842 12.7515C8.65638 10.99 11.1219 10 13.6923 10H19.0772C19.6717 10 20.1547 10.468 20.1547 11.044C20.1547 11.6201 19.6717 12.0881 19.0772 12.0881H13.6923C11.6925 12.0881 9.77503 12.8582 8.36179 14.2276C6.94856 15.5969 6.15369 17.4548 6.15369 19.3925V41.3057C6.15369 43.2433 6.94856 45.1012 8.36179 46.4706C9.77503 47.8399 11.6925 48.6101 13.6923 48.6101H16.9235C17.518 48.6101 18.001 49.0768 18.001 49.6541V55.3603L33.6514 48.6988C33.7881 48.6409 33.9354 48.6101 34.084 48.6101H50.3077C54.4705 48.6101 57.8463 45.3404 57.8463 41.3057V37.1321C57.8463 36.5561 58.3293 36.0881 58.9238 36.0881C59.5183 36.0881 60.0013 36.5561 60.0013 37.1321V41.3057C60.0013 46.4924 55.6621 50.6969 50.309 50.6969H34.3109L17.3574 57.9126C17.0243 58.054 16.6408 58.0231 16.3356 57.8316C16.0304 57.6387 15.8473 57.3108 15.8473 56.9585V50.6982L15.846 50.6956Z" fill="#37008F"/>
<path fill-rule="evenodd" clip-rule="evenodd" d="M42.7679 22.5209H51.3827C51.9772 22.5209 52.4589 22.0529 52.4589 21.4781C52.4589 20.9034 51.9759 20.4341 51.3827 20.4341H42.7679C42.1735 20.4341 41.6904 20.9021 41.6904 21.4781C41.6904 22.0541 42.1735 22.5209 42.7679 22.5209Z" fill="#37008F"/>
<path fill-rule="evenodd" clip-rule="evenodd" d="M38.4603 27.7394H51.3838C51.9783 27.7394 52.46 27.2714 52.46 26.6954C52.46 26.1194 51.977 25.6514 51.3838 25.6514H38.4603C37.8658 25.6514 37.3828 26.1194 37.3828 26.6954C37.3828 27.2714 37.8658 27.7394 38.4603 27.7394Z" fill="#37008F"/>
<path fill-rule="evenodd" clip-rule="evenodd" d="M38.4603 32.9572H51.3838C51.9783 32.9572 52.46 32.4892 52.46 31.9132C52.46 31.3372 51.977 30.8691 51.3838 30.8691H38.4603C37.8658 30.8691 37.3828 31.3372 37.3828 31.9132C37.3828 32.4892 37.8658 32.9572 38.4603 32.9572Z" fill="#37008F"/>
<path fill-rule="evenodd" clip-rule="evenodd" d="M38.4603 38.1735H47.0751C47.6696 38.1735 48.1526 37.7055 48.1526 37.1295C48.1526 36.5535 47.6696 36.0854 47.0751 36.0854H38.4603C37.8658 36.0854 37.3828 36.5535 37.3828 37.1295C37.3828 37.7055 37.8658 38.1735 38.4603 38.1735Z" fill="#37008F"/>
<path fill-rule="evenodd" clip-rule="evenodd" d="M29.891 34.0001C29.0974 33.3649 26.6598 32.9561 26.6598 32.9561C26.6598 32.9561 25.1032 35.0428 22.363 35.0428C19.6228 35.0428 18.045 32.9561 18.045 32.9561C18.045 32.9561 15.5993 33.3585 14.8138 34.0001C14.348 34.3807 13.6832 35.2254 13.0847 36.0573C12.6694 36.56 12.5181 37.2222 12.676 37.8471C12.8352 38.4733 13.2838 38.9914 13.8929 39.2511C16.0333 40.1473 19.3799 41.3045 22.5567 41.3045C25.7335 41.3045 28.8745 40.1833 30.9326 39.2833C31.5351 39.0184 31.9756 38.4964 32.1229 37.8715C32.2716 37.2466 32.111 36.5909 31.6903 36.0972C31.0706 35.2473 30.37 34.3858 29.8883 34.0001H29.891Z" fill="#F58622"/>
<path fill-rule="evenodd" clip-rule="evenodd" d="M17.0232 24.609C17.0232 24.609 16.6026 18.3486 22.4652 18.3486C28.3278 18.3486 27.7705 24.609 27.7705 24.609C27.7705 27.7758 24.6149 30.8694 22.4652 30.8694C20.3155 30.8694 17.0232 27.7758 17.0232 24.609Z" fill="white"/>
<path fill-rule="evenodd" clip-rule="evenodd" d="M28.7852 24.6242C28.7838 25.3674 28.6379 26.108 28.3818 26.8164C28.1854 27.3603 27.5696 27.6457 27.0097 27.4555C26.4483 27.2652 26.1538 26.6686 26.3502 26.126C26.528 25.6361 26.6328 25.1244 26.6328 24.6101C26.6328 24.5869 26.6328 24.5651 26.6355 24.5419C26.6355 24.5419 26.7801 22.5387 25.7729 20.9919C25.1864 20.0893 24.1845 19.3925 22.405 19.3925C20.6255 19.3925 19.5812 20.1035 18.9695 21.0087C17.9225 22.5554 18.0393 24.5548 18.0393 24.5548L16.9644 24.6101H18.0419C18.0419 26.216 19.077 27.7833 20.2712 28.7939C20.9865 29.3995 21.7535 29.8277 22.4064 29.8277C23.0592 29.8277 23.8461 29.3751 24.5547 28.7399C24.9913 28.3491 25.6734 28.3735 26.0768 28.7965C26.4802 29.2195 26.4537 29.8804 26.0184 30.2713C24.8533 31.3166 23.5104 31.9145 22.4077 31.9145C21.305 31.9145 20.0231 31.3539 18.8554 30.3651C17.2245 28.9855 15.8895 26.8049 15.8895 24.6101C15.8789 24.2166 15.871 21.7853 17.1714 19.8643C18.1109 18.4757 19.6661 17.3057 22.409 17.3057C25.1519 17.3057 26.6859 18.477 27.5988 19.8798C28.8489 21.8007 28.8064 24.2359 28.7905 24.6242H28.7852Z" fill="#37008F"/>
<path fill-rule="evenodd" clip-rule="evenodd" d="M12.2552 35.4348C12.912 34.5257 13.6472 33.6154 14.1567 33.2001C14.4699 32.9442 14.9728 32.6987 15.5355 32.5071C16.605 32.1406 17.9002 31.9272 17.9002 31.9272C18.3022 31.8603 18.7083 32.0198 18.9498 32.3386C18.9498 32.3386 20.2131 33.9986 22.4 33.9986C24.5868 33.9986 25.8236 32.3438 25.8236 32.3438C26.1712 31.8771 26.8453 31.7716 27.327 32.1098C27.8087 32.4466 27.9175 33.0998 27.5685 33.5665C27.5685 33.5665 25.6975 36.0853 22.3986 36.0853C20.0724 36.0853 18.4442 34.8304 17.6892 34.0937C17.3919 34.1554 17.0137 34.2441 16.6369 34.3534C16.2109 34.4769 15.7743 34.6093 15.5434 34.797C15.1254 35.1377 14.5416 35.9066 14.0028 36.6537C13.9895 36.6729 13.9749 36.6909 13.9603 36.7077C13.7533 36.9571 13.679 37.2862 13.7573 37.5961C13.8356 37.9073 14.0599 38.1644 14.3558 38.2904C16.3914 39.1429 19.5708 40.2576 22.5924 40.2576C25.6139 40.2576 28.5757 39.1815 30.5224 38.329C30.8197 38.1978 31.036 37.9407 31.1103 37.6334C31.1833 37.3248 31.105 37.0021 30.8966 36.7578C30.8794 36.7372 30.8634 36.7167 30.8475 36.6948C30.2902 35.9311 29.6731 35.1467 29.2405 34.8009C28.7827 34.4344 28.7164 33.7761 29.0959 33.3312C29.4741 32.8877 30.1535 32.8247 30.6126 33.1911C31.1381 33.6115 31.9104 34.5373 32.5885 35.4643C33.2016 36.2036 33.4312 37.1757 33.2109 38.1014C32.9866 39.0426 32.3231 39.8282 31.4141 40.2294C29.2485 41.177 25.8859 42.3431 22.595 42.3431C19.3041 42.3431 15.7491 41.1448 13.4972 40.2011C12.5816 39.8115 11.9062 39.031 11.6673 38.0911C11.4324 37.1628 11.6501 36.1831 12.2552 35.4309V35.4348Z" fill="#37008F"/>
</g>
<defs>
<clipPath id="clip0_941_60712">
<rect width="56" height="48" fill="white" transform="translate(4 10)"/>
</clipPath>
</defs>
</svg>
