<svg width="64" height="64" viewBox="0 0 64 64" fill="none" xmlns="http://www.w3.org/2000/svg">
<g clip-path="url(#clip0_941_60705)">
<path fill-rule="evenodd" clip-rule="evenodd" d="M58.0001 27.4125C58.0001 26.328 57.5785 25.289 56.829 24.5219C56.0783 23.7549 55.0613 23.3254 53.9999 23.3254H9.99965C8.93829 23.3254 7.9213 23.7562 7.17058 24.5219C6.41987 25.289 5.99951 26.328 5.99951 27.4125V49.8904C5.99951 50.9748 6.4211 52.0139 7.17058 52.7796C7.9213 53.5467 8.93829 53.9761 9.99965 53.9761H53.9999C55.0613 53.9761 56.0783 53.5454 56.829 52.7796C57.5797 52.0126 58.0001 50.9735 58.0001 49.8904V27.4125Z" fill="white"/>
<path fill-rule="evenodd" clip-rule="evenodd" d="M49.0005 52.6638V53.9774H54.0004C55.0617 53.9774 56.0787 53.5467 56.8294 52.7809C57.5801 52.0139 58.0005 50.9748 58.0005 49.8917V44.7832H56.7148C52.457 44.7832 49.0005 48.3148 49.0005 52.665V52.6638Z" fill="#C7CEFF"/>
<path fill-rule="evenodd" clip-rule="evenodd" d="M14.9995 52.6638V53.9774H9.99965C8.93829 53.9774 7.9213 53.5467 7.17058 52.7809C6.41987 52.0139 5.99951 50.9748 5.99951 49.8917V44.7832H7.28523C11.543 44.7832 14.9995 48.3148 14.9995 52.665V52.6638Z" fill="#C7CEFF"/>
<path fill-rule="evenodd" clip-rule="evenodd" d="M49.9999 53.9774C49.9999 49.4659 53.5847 45.8034 58.0002 45.8034C58.5525 45.8034 58.9999 45.3462 58.9999 44.7819C58.9999 44.2177 58.5525 43.7605 58.0002 43.7605C52.4814 43.7605 48.0005 48.3387 48.0005 53.9774C48.0005 54.5416 48.448 54.9988 49.0002 54.9988C49.5525 54.9988 49.9999 54.5404 49.9999 53.9774Z" fill="#37008F"/>
<path fill-rule="evenodd" clip-rule="evenodd" d="M15.9995 53.9774C15.9995 48.3387 11.5186 43.7605 5.99973 43.7605C5.44747 43.7605 5 44.2177 5 44.7819C5 45.3462 5.44747 45.8034 5.99973 45.8034C10.4153 45.8034 14 49.4659 14 53.9774C14 54.5416 14.4475 54.9988 14.9997 54.9988C15.552 54.9988 15.9995 54.5404 15.9995 53.9774Z" fill="#37008F"/>
<path fill-rule="evenodd" clip-rule="evenodd" d="M58.0001 20.2611C58.0001 19.1767 57.5785 18.1376 56.829 17.3706C56.0783 16.6036 55.0613 16.1741 53.9999 16.1741H9.99965C8.93829 16.1741 7.9213 16.6048 7.17058 17.3706C6.41987 18.1376 5.99951 19.1767 5.99951 20.2611V42.739C5.99951 43.8234 6.4211 44.8625 7.17058 45.6295C7.92007 46.3965 8.93829 46.826 9.99965 46.826H53.9999C55.0613 46.826 56.0783 46.3953 56.829 45.6295C57.5797 44.8625 58.0001 43.8234 58.0001 42.739V20.2611Z" fill="#C7CEFF"/>
<path fill-rule="evenodd" clip-rule="evenodd" d="M5 34.5649V49.8902C5 51.2454 5.52637 52.544 6.46446 53.5024C7.40255 54.4609 8.67347 54.9987 9.99986 54.9987H14.9997C15.552 54.9987 15.9995 54.5402 15.9995 53.9773C15.9995 53.4143 15.552 52.9558 14.9997 52.9558H9.99986C9.20477 52.9558 8.44172 52.6334 7.87837 52.0578C7.31626 51.4835 6.99945 50.7039 6.99945 49.8902V34.5649C6.99945 34.0006 6.55198 33.5435 5.99973 33.5435C5.44747 33.5435 5 34.0006 5 34.5649Z" fill="#37008F"/>
<path fill-rule="evenodd" clip-rule="evenodd" d="M15.9995 46.8248C15.9995 41.1861 11.5186 36.6079 5.99973 36.6079C5.44747 36.6079 5 37.0651 5 37.6293C5 38.1936 5.44747 38.6508 5.99973 38.6508C10.4153 38.6508 14 42.3134 14 46.8248C14 47.3891 14.4475 47.8462 14.9997 47.8462C15.552 47.8462 15.9995 47.3891 15.9995 46.8248Z" fill="#37008F"/>
<path fill-rule="evenodd" clip-rule="evenodd" d="M21.0007 55H54.0003C55.3267 55 56.5976 54.4622 57.5357 53.5037C58.4738 52.5453 59.0001 51.2468 59.0001 49.8916V43.7617C59.0001 43.1974 58.5527 42.7402 58.0004 42.7402C57.4482 42.7402 57.0007 43.1974 57.0007 43.7617V49.8916C57.0007 50.7039 56.6851 51.4835 56.1218 52.0591C55.5584 52.6347 54.7966 52.9571 54.0003 52.9571H21.0007C20.4484 52.9571 20.001 53.4143 20.001 53.9786C20.001 54.5428 20.4484 55 21.0007 55Z" fill="#37008F"/>
<path fill-rule="evenodd" clip-rule="evenodd" d="M5 29.4565V42.8422C5 44.1974 5.52637 45.496 6.46446 46.4544C7.40255 47.4129 8.67347 47.9507 9.99986 47.9507H54.0001C55.3265 47.9507 56.5975 47.4129 57.5355 46.4544C58.4736 45.496 59 44.1974 59 42.8422V42.739H57.0005V42.8422C57.0005 43.6546 56.685 44.4342 56.1216 45.0098C55.5595 45.5841 54.7965 45.9078 54.0001 45.9078H9.99986C9.20477 45.9078 8.44172 45.5854 7.87837 45.0098C7.31626 44.4355 6.99945 43.6559 6.99945 42.8422V29.4565C6.99945 28.8922 6.55198 28.4351 5.99973 28.4351C5.44747 28.4351 5 28.8922 5 29.4565Z" fill="#37008F"/>
<path fill-rule="evenodd" clip-rule="evenodd" d="M49.9999 46.8248C49.9999 42.3134 53.5847 38.6508 58.0002 38.6508C58.5525 38.6508 58.9999 38.1936 58.9999 37.6293C58.9999 37.0651 58.5525 36.6079 58.0002 36.6079C52.4814 36.6079 48.0005 41.1861 48.0005 46.8248C48.0005 47.3891 48.448 47.8462 49.0002 47.8462C49.5525 47.8462 49.9999 47.3891 49.9999 46.8248Z" fill="#37008F"/>
<path fill-rule="evenodd" clip-rule="evenodd" d="M58.0001 13.1097C58.0001 12.0253 57.5785 10.9862 56.829 10.2192C56.0795 9.45219 55.0613 9.02271 53.9999 9.02271H9.99965C8.93829 9.02271 7.9213 9.45345 7.17058 10.2192C6.41987 10.985 5.99951 12.0253 5.99951 13.1097V35.5877C5.99951 36.6721 6.4211 37.7111 7.17058 38.4782C7.9213 39.2452 8.93829 39.6747 9.99965 39.6747H53.9999C55.0613 39.6747 56.0783 39.2439 56.829 38.4782C57.5797 37.7111 58.0001 36.6721 58.0001 35.5877V13.1097Z" fill="white"/>
<path fill-rule="evenodd" clip-rule="evenodd" d="M49.0005 10.3363V9.02271H54.0004C55.0617 9.02271 56.0787 9.45345 56.8294 10.2192C57.5801 10.9862 58.0005 12.0253 58.0005 13.1097V18.2182H56.7148C52.457 18.2182 49.0005 14.6866 49.0005 10.3363Z" fill="#C7CEFF"/>
<path fill-rule="evenodd" clip-rule="evenodd" d="M49.0005 38.3599V39.6735H54.0004C55.0617 39.6735 56.0787 39.2427 56.8294 38.477C57.5801 37.71 58.0005 36.6709 58.0005 35.5865V30.478H56.7148C52.457 30.478 49.0005 34.0096 49.0005 38.3599Z" fill="#C7CEFF"/>
<path fill-rule="evenodd" clip-rule="evenodd" d="M14.9995 10.3363V9.02271H9.99965C8.93829 9.02271 7.9213 9.45345 7.17058 10.2192C6.41987 10.9862 5.99951 12.0253 5.99951 13.1097V18.2182H7.28523C11.543 18.2182 14.9995 14.6866 14.9995 10.3363Z" fill="#C7CEFF"/>
<path fill-rule="evenodd" clip-rule="evenodd" d="M14.9995 38.3599V39.6735H9.99965C8.93829 39.6735 7.9213 39.2427 7.17058 38.477C6.41987 37.71 5.99951 36.6709 5.99951 35.5865V30.478H7.28523C11.543 30.478 14.9995 34.0096 14.9995 38.3599Z" fill="#C7CEFF"/>
<path fill-rule="evenodd" clip-rule="evenodd" d="M35.7956 40.6948H54.0003C55.3266 40.6948 56.5976 40.157 57.5357 39.1986C58.4737 38.2401 59.0001 36.9416 59.0001 35.5864V13.1084C59.0001 11.7532 58.4737 10.4547 57.5357 9.49626C56.5976 8.5378 55.3266 8 54.0003 8H46C45.4477 8 45.0003 8.45719 45.0003 9.02144C45.0003 9.58568 45.4477 10.0429 46 10.0429H54.0003C54.7953 10.0429 55.5584 10.3653 56.1217 10.9409C56.6839 11.5152 57.0007 12.2948 57.0007 13.1084V35.5864C57.0007 36.3987 56.6851 37.1784 56.1217 37.7539C55.5596 38.3283 54.7966 38.652 54.0003 38.652H35.7956C35.2434 38.652 34.7959 39.1091 34.7959 39.6734C34.7959 40.2376 35.2434 40.6948 35.7956 40.6948Z" fill="#37008F"/>
<path fill-rule="evenodd" clip-rule="evenodd" d="M39.0005 8H9.99986C8.67347 8 7.40255 8.53906 6.46446 9.49752C5.52637 10.4547 5 11.7545 5 13.1097V35.5876C5 36.9428 5.52637 38.2414 6.46446 39.1998C7.40255 40.1583 8.67347 40.6961 9.99986 40.6961H24.9995C25.5517 40.6961 25.9992 40.2389 25.9992 39.6747C25.9992 39.1104 25.5505 38.6532 24.9995 38.6532H9.99986C9.20477 38.6532 8.44172 38.3308 7.87837 37.7552C7.31626 37.1809 6.99945 36.4013 6.99945 35.5876V13.1097C6.99945 12.2973 7.31503 11.5177 7.87837 10.9421C8.44049 10.3678 9.20353 10.0441 9.99986 10.0441H38.9993C39.5516 10.0441 39.999 9.58694 39.999 9.0227C39.999 8.45845 39.5516 8 39.0005 8Z" fill="#37008F"/>
<path d="M32.0001 31.5007C35.8664 31.5007 39.0006 28.2984 39.0006 24.3481C39.0006 20.3979 35.8664 17.1956 32.0001 17.1956C28.1338 17.1956 24.9995 20.3979 24.9995 24.3481C24.9995 28.2984 28.1338 31.5007 32.0001 31.5007Z" fill="#F58622"/>
<path fill-rule="evenodd" clip-rule="evenodd" d="M28.7383 19.2032C29.6776 18.5797 30.7981 18.217 32 18.217C35.3111 18.217 37.9996 20.9639 37.9996 24.3469C37.9996 27.7298 35.3111 30.4768 32 30.4768C28.689 30.4768 26.0004 27.7298 26.0004 24.3469C26.0004 23.7826 25.5517 23.3254 25.0007 23.3254C24.4497 23.3254 24.001 23.7839 24.001 24.3469C24.001 28.8583 27.5857 32.5209 32.0013 32.5209C36.4168 32.5209 40.0015 28.8583 40.0015 24.3469C40.0015 19.8354 36.4168 16.1729 32.0013 16.1729C30.3963 16.1729 28.9022 16.6565 27.6486 17.489C27.1863 17.7963 27.0544 18.4298 27.3552 18.9021C27.656 19.3744 28.276 19.5092 28.7383 19.2019V19.2032Z" fill="#37008F"/>
<path fill-rule="evenodd" clip-rule="evenodd" d="M14 9.0227C14 13.5342 10.4153 17.1967 5.99973 17.1967C5.44747 17.1967 5 17.6552 5 18.2182C5 18.7811 5.44747 19.2396 5.99973 19.2396C11.5186 19.2396 15.9995 14.6614 15.9995 9.0227C15.9995 8.45845 15.552 8 14.9997 8C14.4475 8 14 8.45719 14 9.02144V9.0227Z" fill="#37008F"/>
<path fill-rule="evenodd" clip-rule="evenodd" d="M15.9995 39.6734C15.9995 34.0348 11.5186 29.4565 5.99973 29.4565C5.44747 29.4565 5 29.915 5 30.478C5 31.041 5.44747 31.4994 5.99973 31.4994C10.4153 31.4994 14 35.162 14 39.6734C14 40.2377 14.4475 40.6949 14.9997 40.6949C15.552 40.6949 15.9995 40.2377 15.9995 39.6734Z" fill="#37008F"/>
<path fill-rule="evenodd" clip-rule="evenodd" d="M47.9995 9.0227C47.9995 14.6614 52.4804 19.2396 57.9992 19.2396C58.5515 19.2396 58.999 18.7824 58.999 18.2182C58.999 17.6539 58.5515 17.1967 57.9992 17.1967C53.5837 17.1967 49.999 13.5342 49.999 9.0227C50.0002 8.45845 49.5515 8 49.0005 8C48.4494 8 48.0007 8.45719 48.0007 9.02144L47.9995 9.0227Z" fill="#37008F"/>
<path fill-rule="evenodd" clip-rule="evenodd" d="M49.9999 39.6734C49.9999 35.162 53.5847 31.4994 58.0002 31.4994C58.5525 31.4994 58.9999 31.0422 58.9999 30.478C58.9999 29.9137 58.5525 29.4565 58.0002 29.4565C52.4814 29.4565 48.0005 34.0348 48.0005 39.6734C48.0005 40.2377 48.448 40.6949 49.0002 40.6949C49.5525 40.6949 49.9999 40.2377 49.9999 39.6734Z" fill="#37008F"/>
</g>
<defs>
<clipPath id="clip0_941_60705">
<rect width="54" height="47" fill="white" transform="translate(5 8)"/>
</clipPath>
</defs>
</svg>
