<svg width="24" height="24" viewBox="0 0 24 24" fill="none" xmlns="http://www.w3.org/2000/svg">
<path d="M12.7696 12.7357C12.7696 12.3215 12.4338 11.9857 12.0196 11.9857C11.6054 11.9857 11.2696 12.3215 11.2696 12.7357V15.3786C11.2696 15.7928 11.6054 16.1286 12.0196 16.1286C12.4338 16.1286 12.7696 15.7928 12.7696 15.3786V12.7357Z" fill="#313131" fill-opacity="0.5"/>
<path fill-rule="evenodd" clip-rule="evenodd" d="M10.791 3C8.71989 3 7.04095 4.67893 7.04095 6.75V8.28571H6.5625C4.49143 8.28571 2.8125 9.96464 2.8125 12.0357V17.6643C2.8125 19.7353 4.49143 21.4143 6.5625 21.4143H17.4768C19.5479 21.4143 21.2268 19.7353 21.2268 17.6643V12.0357C21.2268 9.96464 19.5479 8.28571 17.4768 8.28571H16.9981V6.75C16.9981 4.67893 15.3192 3 13.2481 3H10.791ZM16.2445 9.78571L16.2481 9.78571L16.2517 9.78571H17.4768C18.7194 9.78571 19.7268 10.7931 19.7268 12.0357V17.6643C19.7268 18.9069 18.7194 19.9143 17.4768 19.9143H6.5625C5.31986 19.9143 4.3125 18.9069 4.3125 17.6643V12.0357C4.3125 10.7931 5.31986 9.78571 6.5625 9.78571H7.78733L7.79095 9.78571L7.79458 9.78571H16.2445ZM15.4981 8.28571V6.75C15.4981 5.50736 14.4907 4.5 13.2481 4.5H10.791C9.54831 4.5 8.54095 5.50736 8.54095 6.75V8.28571H15.4981Z" fill="#313131" fill-opacity="0.5"/>
</svg>
