<svg width="24" height="24" viewBox="0 0 24 24" fill="none" xmlns="http://www.w3.org/2000/svg">
<path fill-rule="evenodd" clip-rule="evenodd" d="M3 8.25C3 5.3505 5.35051 3 8.25 3H15.7071C18.6066 3 20.9571 5.35051 20.9571 8.25V15.7071C20.9571 18.6066 18.6066 20.9571 15.7071 20.9571H8.25C5.3505 20.9571 3 18.6066 3 15.7071V8.25ZM8.25 4.5C6.17893 4.5 4.5 6.17893 4.5 8.25V15.7071C4.5 17.7782 6.17893 19.4571 8.25 19.4571H15.7071C17.7782 19.4571 19.4571 17.7782 19.4571 15.7071V8.25C19.4571 6.17893 17.7782 4.5 15.7071 4.5H8.25ZM9.13398 14.6908C8.84108 14.3979 8.84108 13.9231 9.13398 13.6302L10.7856 11.9786L9.13398 10.3269C8.84108 10.034 8.84108 9.55917 9.13398 9.26628C9.42687 8.97338 9.90174 8.97338 10.1946 9.26628L11.8463 10.9179L13.4978 9.26631C13.7907 8.97341 14.2656 8.97341 14.5585 9.26631C14.8514 9.5592 14.8514 10.0341 14.5585 10.327L12.9069 11.9786L14.5585 13.6301C14.8514 13.923 14.8514 14.3979 14.5585 14.6908C14.2656 14.9837 13.7907 14.9837 13.4978 14.6908L11.8463 13.0392L10.1946 14.6908C9.90174 14.9837 9.42687 14.9837 9.13398 14.6908Z" fill="#313131" fill-opacity="0.5"/>
</svg>
