<svg width="64" height="64" viewBox="0 0 64 64" fill="none" xmlns="http://www.w3.org/2000/svg">
<g clip-path="url(#clip0_941_60704)">
<path fill-rule="evenodd" clip-rule="evenodd" d="M59.9445 11.5728C59.9445 9.63339 58.3827 8.06128 56.456 8.06128H8.54418C6.61745 8.06128 5.05566 9.63339 5.05566 11.5728V44.9268C5.05566 46.8663 6.61745 48.4384 8.54418 48.4384H56.456C58.3827 48.4384 59.9445 46.8663 59.9445 44.9268V11.5728Z" fill="white"/>
<path fill-rule="evenodd" clip-rule="evenodd" d="M59.9447 42.063H5.05713V44.9268C5.05713 46.8662 6.61892 48.4383 8.54564 48.4383H56.4575C58.3842 48.4383 59.946 46.8662 59.946 44.9268V42.063H59.9447Z" fill="#F58622"/>
<path fill-rule="evenodd" clip-rule="evenodd" d="M19.8337 40.999H5.05689C4.47351 40.999 4 41.4757 4 42.0616C4 42.6475 4.47351 43.1241 5.05558 43.1241H19.8337C20.4158 43.1241 20.8893 42.6475 20.8893 42.0616C20.8893 41.4757 20.4158 40.999 19.8337 40.999Z" fill="#37008F"/>
<path fill-rule="evenodd" clip-rule="evenodd" d="M59.9445 40.999H50.4443C49.8622 40.999 49.3887 41.4757 49.3887 42.0616C49.3887 42.6475 49.8622 43.1241 50.4443 43.1241H59.9445C60.5265 43.1241 61 42.6475 61 42.0616C61 41.4757 60.5265 40.999 59.9445 40.999Z" fill="#37008F"/>
<path d="M40.7101 34.3897C45.2446 29.8252 45.2446 22.4248 40.7101 17.8603C36.1755 13.2958 28.8236 13.2958 24.2891 17.8603C19.7546 22.4248 19.7546 29.8252 24.2891 34.3897C28.8236 38.9542 36.1755 38.9542 40.7101 34.3897Z" fill="#C7CEFF"/>
<path fill-rule="evenodd" clip-rule="evenodd" d="M32.4993 15.4991C38.3253 15.4991 43.0551 20.2602 43.0551 26.1247C43.0551 31.9891 38.3253 36.7502 32.4993 36.7502C26.6734 36.7502 21.9435 31.9891 21.9435 26.1247C21.9435 23.1003 23.2018 20.3708 25.2175 18.4353C25.6387 18.0311 25.6544 17.357 25.2528 16.933C24.8513 16.509 24.1816 16.4919 23.7604 16.8974C21.3405 19.2201 19.8311 22.4972 19.8311 26.1247C19.8311 33.161 25.5066 38.8753 32.498 38.8753C39.4894 38.8753 45.165 33.1623 45.165 26.1247C45.165 19.0871 39.4894 13.374 32.498 13.374C31.9159 13.374 31.4424 13.8507 31.4424 14.4366C31.4424 15.0225 31.9159 15.4991 32.498 15.4991H32.4993Z" fill="#37008F"/>
<path fill-rule="evenodd" clip-rule="evenodd" d="M31.4438 18.6868V21.8745C31.4438 22.4604 31.9174 22.937 32.4994 22.937C33.0815 22.937 33.555 22.4604 33.555 21.8745V18.6868C33.555 18.1009 33.0815 17.6243 32.4994 17.6243C31.9174 17.6243 31.4438 18.1009 31.4438 18.6868Z" fill="#37008F"/>
<path fill-rule="evenodd" clip-rule="evenodd" d="M31.4438 30.3748V33.5625C31.4438 34.1484 31.9174 34.625 32.4994 34.625C33.0815 34.625 33.555 34.1484 33.555 33.5625V30.3748C33.555 29.7889 33.0815 29.3123 32.4994 29.3123C31.9174 29.3123 31.4438 29.7889 31.4438 30.3748Z" fill="#37008F"/>
<path fill-rule="evenodd" clip-rule="evenodd" d="M34.6103 28.2499C34.6103 27.6627 34.1381 27.1873 33.5548 27.1873H31.4436C29.6948 27.1873 28.2769 25.7601 28.2769 23.9997C28.2769 22.2393 29.6948 20.812 31.4436 20.812H35.6659C36.248 20.812 36.7215 21.2886 36.7215 21.8746C36.7215 22.4605 36.248 22.9371 35.6659 22.9371H31.4436C30.8602 22.9371 30.388 23.4124 30.388 23.9997C30.388 24.5869 30.8602 25.0622 31.4436 25.0622H33.5548C35.3036 25.0622 36.7215 26.4895 36.7215 28.2499C36.7215 30.0103 35.3036 31.4376 33.5548 31.4376H29.3324C28.7504 31.4376 28.2769 30.9609 28.2769 30.375C28.2769 29.7891 28.7504 29.3125 29.3324 29.3125H33.5548C34.1381 29.3125 34.6103 28.8371 34.6103 28.2499Z" fill="#37008F"/>
<path fill-rule="evenodd" clip-rule="evenodd" d="M39.8897 48.4382H25.1116L21.9448 56.9387H43.0551L39.8884 48.4382H39.8897Z" fill="#C7CEFF"/>
<path fill-rule="evenodd" clip-rule="evenodd" d="M22.5401 52.3134L20.9574 56.5636C20.7533 57.1127 21.0293 57.7249 21.5748 57.9317C22.1202 58.1371 22.7297 57.8592 22.9338 57.3102L24.5165 53.06C24.7206 52.5109 24.4446 51.8987 23.8991 51.6919C23.3537 51.4865 22.7441 51.7644 22.5401 52.3134Z" fill="#37008F"/>
<path fill-rule="evenodd" clip-rule="evenodd" d="M44.0439 56.5634L40.8772 48.063C40.6731 47.5139 40.0636 47.2348 39.5182 47.4415C38.9727 47.6469 38.6954 48.2605 38.9008 48.8095L42.0675 57.31C42.2716 57.859 42.8811 58.1381 43.4265 57.9314C43.972 57.726 44.2493 57.1125 44.0439 56.5634Z" fill="#37008F"/>
<path fill-rule="evenodd" clip-rule="evenodd" d="M46.222 55.875H18.7782C18.1962 55.875 17.7227 56.3516 17.7227 56.9376C17.7227 57.5235 18.1962 58.0001 18.7782 58.0001H46.222C46.8041 58.0001 47.2776 57.5235 47.2776 56.9376C47.2776 56.3516 46.8041 55.875 46.222 55.875Z" fill="#37008F"/>
<path fill-rule="evenodd" clip-rule="evenodd" d="M60.9987 28.2498V12.3128C60.9987 10.9039 60.4428 9.55303 59.4526 8.55631C58.4624 7.55959 57.1204 7 55.7208 7H9.2779C6.3623 7 4 9.37791 4 12.3128V44.1881C4 47.1217 6.3623 49.5009 9.2779 49.5009H55.7221C58.6364 49.5009 61 47.123 61 44.1881V38.8753C61 38.2894 60.5265 37.8128 59.9444 37.8128C59.3623 37.8128 58.8888 38.2894 58.8888 38.8753V44.1881C58.8888 45.9485 57.4709 47.3758 55.7221 47.3758H9.2779C7.52906 47.3758 6.11116 45.9485 6.11116 44.1881V12.3128C6.11116 10.5524 7.52906 9.12511 9.2779 9.12511H55.7221C56.5619 9.12511 57.3676 9.46086 57.9614 10.0586C58.5553 10.6564 58.8888 11.4675 58.8888 12.3128V28.2511C58.8888 28.837 59.3623 29.3137 59.9444 29.3137C60.5265 29.3137 61 28.837 61 28.2511L60.9987 28.2498Z" fill="#37008F"/>
</g>
<defs>
<clipPath id="clip0_941_60704">
<rect width="57" height="51" fill="white" transform="translate(4 7)"/>
</clipPath>
</defs>
</svg>
