<svg width="64" height="64" viewBox="0 0 64 64" fill="none" xmlns="http://www.w3.org/2000/svg">
<g clip-path="url(#clip0_941_60708)">
<path d="M28.9264 57.8739C43.1771 57.8739 54.7297 46.2894 54.7297 31.9993C54.7297 17.7092 43.1771 6.12476 28.9264 6.12476C14.6756 6.12476 3.12305 17.7092 3.12305 31.9993C3.12305 46.2894 14.6756 57.8739 28.9264 57.8739Z" fill="#C7CEFF"/>
<path fill-rule="evenodd" clip-rule="evenodd" d="M46.0048 49.8601C41.5701 54.1256 35.5511 56.7491 28.9264 56.7491C15.3041 56.7491 4.24474 45.6592 4.24474 31.9992C4.24474 31.3778 3.74141 30.8745 3.1231 30.8745C2.5048 30.8745 2.00146 31.3792 2.00146 31.9992C2.00146 46.9006 14.0661 58.9985 28.9264 58.9985C36.154 58.9985 42.7198 56.1375 47.5582 51.4839C48.0055 51.0537 48.0195 50.3409 47.5919 49.8938C47.1629 49.4453 46.452 49.4313 46.0062 49.8601H46.0048Z" fill="#37008F"/>
<path fill-rule="evenodd" clip-rule="evenodd" d="M6.44156 21.7825C10.3238 13.2148 18.9352 7.24947 28.9248 7.24947C42.5471 7.24947 53.6065 18.3394 53.6065 31.9993C53.6065 32.6207 54.1098 33.124 54.7281 33.124C55.3464 33.124 55.8498 32.6193 55.8498 31.9993C55.8512 17.0979 43.7851 5 28.9248 5C18.0281 5 8.63437 11.5052 4.39878 20.8503C4.1422 21.4155 4.39177 22.0833 4.95539 22.3406C5.51901 22.5979 6.18499 22.3477 6.44016 21.7825H6.44156Z" fill="#37008F"/>
<path d="M28.9264 47.7498C37.6012 47.7498 44.6335 40.6981 44.6335 31.9993C44.6335 23.3005 37.6012 16.2488 28.9264 16.2488C20.2516 16.2488 13.2192 23.3005 13.2192 31.9993C13.2192 40.6981 20.2516 47.7498 28.9264 47.7498Z" fill="white"/>
<path d="M32.8934 35.9758C35.0841 33.7791 35.0841 30.2175 32.8934 28.0208C30.7027 25.824 27.1509 25.824 24.9602 28.0208C22.7696 30.2175 22.7696 33.7791 24.9602 35.9758C27.1509 38.1726 30.7027 38.1726 32.8934 35.9758Z" fill="#F58622"/>
<path fill-rule="evenodd" clip-rule="evenodd" d="M32.1737 35.1035C31.3563 35.964 30.2024 36.4996 28.9266 36.4996C26.4491 36.4996 24.4386 34.4835 24.4386 31.9993C24.4386 29.515 26.4491 27.4989 28.9266 27.4989C30.058 27.4989 31.0927 27.9207 31.8821 28.6138C32.3476 29.0229 33.057 28.9765 33.465 28.5098C33.873 28.043 33.8267 27.3316 33.3612 26.9225C32.1765 25.8807 30.6244 25.248 28.9266 25.248C25.2111 25.248 22.1953 28.2722 22.1953 31.9979C22.1953 35.7236 25.2111 38.7477 28.9266 38.7477C30.8417 38.7477 32.5719 37.9435 33.7987 36.6543C34.2263 36.2044 34.2095 35.4916 33.7608 35.0642C33.3122 34.6354 32.6013 34.6522 32.1751 35.1021L32.1737 35.1035Z" fill="#37008F"/>
<path fill-rule="evenodd" clip-rule="evenodd" d="M62.8894 24.7883C63.2721 24.2132 63.3072 23.4737 62.9819 22.8635C62.6566 22.2534 62.0229 21.8738 61.3331 21.8738H52.3642C51.7389 21.8738 51.1556 22.1873 50.8093 22.7089C49.1984 25.1327 44.6333 31.9992 44.6333 31.9992H58.0958C58.0958 31.9992 60.9013 27.7801 62.8894 24.7883Z" fill="#F58622"/>
<path fill-rule="evenodd" clip-rule="evenodd" d="M59.0283 32.6234C59.0283 32.6234 61.4889 28.923 63.4335 25.9959C64.1219 24.9598 64.1864 23.6283 63.6003 22.5317C63.0143 21.4337 61.8744 20.749 60.6322 20.749H52.5634C51.4376 20.749 50.3874 21.3128 49.7635 22.252C48.8101 23.6846 47.1725 26.1492 47.1725 26.1492C46.829 26.6651 46.9692 27.3653 47.4838 27.7097C47.9984 28.0542 48.6966 27.915 49.0401 27.3976C49.0401 27.3976 50.6791 24.933 51.6311 23.5004C51.8386 23.1869 52.1891 22.9999 52.5648 22.9999H60.6336C61.0472 22.9999 61.4272 23.2277 61.6221 23.5946C61.8169 23.9601 61.7959 24.4044 61.566 24.7489C59.6199 27.676 57.1607 31.3764 57.1607 31.3764C56.8172 31.8924 56.956 32.5925 57.472 32.9369C57.9865 33.2814 58.6848 33.1422 59.0283 32.6248V32.6234Z" fill="#37008F"/>
<path fill-rule="evenodd" clip-rule="evenodd" d="M62.8894 39.2102C63.2721 39.7853 63.3072 40.5248 62.9819 41.1349C62.6566 41.7451 62.0229 42.1247 61.3331 42.1247H52.3642C51.7389 42.1247 51.1556 41.8112 50.8093 41.2896C49.1984 38.8658 44.6333 31.9993 44.6333 31.9993H58.0958C58.0958 31.9993 60.9013 36.2184 62.8894 39.2102Z" fill="#F58622"/>
<path fill-rule="evenodd" clip-rule="evenodd" d="M25.1505 17.8727C32.9263 15.7835 40.9292 20.4174 43.0126 28.2146C45.096 36.0118 40.4749 44.0368 32.6991 46.126C24.9234 48.2152 16.9205 43.5813 14.837 35.7841C13.6243 31.2472 14.6828 26.6315 17.3116 23.1547C17.686 22.6598 17.5892 21.954 17.0957 21.5787C16.6022 21.2033 15.8984 21.3003 15.524 21.7952C12.4914 25.8077 11.2716 31.1319 12.6695 36.3661C15.074 45.3626 24.3093 50.7093 33.2796 48.2982C42.2513 45.887 47.5833 36.6262 45.1788 27.6312C42.7743 18.6347 33.5404 13.2879 24.5686 15.6991C23.97 15.8594 23.6153 16.4766 23.7751 17.0769C23.9349 17.6772 24.5504 18.0329 25.1491 17.8727H25.1505Z" fill="#37008F"/>
<path fill-rule="evenodd" clip-rule="evenodd" d="M60.1541 37.1224C60.1541 37.1224 60.8074 38.1052 61.5673 39.2496C61.7973 39.5954 61.8183 40.0383 61.6234 40.4053C61.4285 40.7708 61.0486 41 60.635 41H52.5662C52.1918 41 51.8413 40.8116 51.6324 40.4994C50.7912 39.2341 49.4536 37.2222 49.4536 37.2222C49.1101 36.7063 48.4133 36.5657 47.8974 36.9101C47.3828 37.2546 47.2426 37.9533 47.5861 38.4707C47.5861 38.4707 48.9237 40.4826 49.7649 41.7479C50.3888 42.6871 51.4403 43.2508 52.5648 43.2508H60.6336C61.8744 43.2508 63.0157 42.5662 63.6017 41.4681C64.1878 40.3701 64.1233 39.0387 63.4349 38.0039C62.6736 36.8595 62.0202 35.8768 62.0202 35.8768C61.6767 35.3608 60.9799 35.2202 60.4639 35.5647C59.9494 35.9091 59.8092 36.6079 60.1527 37.1252L60.1541 37.1224Z" fill="#37008F"/>
<path fill-rule="evenodd" clip-rule="evenodd" d="M28.9263 33.124H58.096C58.7157 33.124 59.2176 32.6193 59.2176 31.9992C59.2176 31.3792 58.7143 30.8745 58.096 30.8745H28.9263C28.3066 30.8745 27.8047 31.3792 27.8047 31.9992C27.8047 32.6193 28.308 33.124 28.9263 33.124Z" fill="#37008F"/>
</g>
<defs>
<clipPath id="clip0_941_60708">
<rect width="62" height="54" fill="white" transform="translate(2 5)"/>
</clipPath>
</defs>
</svg>
