<svg width="24" height="24" viewBox="0 0 24 24" fill="none" xmlns="http://www.w3.org/2000/svg">
<path fill-rule="evenodd" clip-rule="evenodd" d="M3.75 12C3.75 7.44365 7.44365 3.75 12 3.75C16.5563 3.75 20.25 7.44365 20.25 12C20.25 16.5563 16.5563 20.25 12 20.25C7.44365 20.25 3.75 16.5563 3.75 12ZM12 2.25C6.61522 2.25 2.25 6.61522 2.25 12C2.25 17.3848 6.61522 21.75 12 21.75C17.3848 21.75 21.75 17.3848 21.75 12C21.75 6.61522 17.3848 2.25 12 2.25ZM12 7.25002C12.4142 7.25002 12.75 7.5858 12.75 8.00002V11.4837L16.0043 12.7282C16.3912 12.8761 16.5849 13.3097 16.437 13.6966C16.289 14.0835 15.8555 14.2772 15.4686 14.1293L11.7524 12.7082C11.4599 12.6059 11.25 12.3275 11.25 12V8.00002C11.25 7.5858 11.5858 7.25002 12 7.25002Z" fill="#313131" fill-opacity="0.5"/>
</svg>
